<svg width="22" height="22" viewBox="0 0 22 22" fill="none" xmlns="http://www.w3.org/2000/svg">
<g clip-path="url(#clip0_175_242)">
<path d="M6.1325 12.3933C6.28384 12.6227 6.49127 12.8096 6.73512 12.9364C6.97896 13.0631 7.25114 13.1255 7.52583 13.1175M7.52583 13.1175C7.90102 13.1507 8.27417 13.0346 8.56423 12.7943C8.85429 12.554 9.03784 12.209 9.075 11.8342C9.0401 11.4577 8.85752 11.1104 8.56721 10.8681C8.27689 10.6259 7.90247 10.5085 7.52583 10.5417C7.1507 10.5722 6.77864 10.4537 6.49035 10.2117C6.20206 9.96978 6.02078 9.62392 5.98583 9.24917C6.02303 8.87607 6.20527 8.53251 6.49332 8.29248C6.78136 8.05244 7.15215 7.93514 7.52583 7.96583M7.52583 13.1175V13.9792M7.52583 7.96583C7.80096 7.9552 8.07412 8.01638 8.31842 8.14335C8.56273 8.27033 8.76977 8.45872 8.91917 8.69M7.52583 7.96583V7.10417M12.8333 13.9792V11.2292M16.0417 13.9792V8.47917M1.375 0.6875H20.625C20.625 0.6875 21.3125 0.6875 21.3125 1.375V3.66667C21.3125 3.66667 21.3125 4.35417 20.625 4.35417H1.375C1.375 4.35417 0.6875 4.35417 0.6875 3.66667V1.375C0.6875 1.375 0.6875 0.6875 1.375 0.6875Z" stroke="black" stroke-width="1.5" stroke-linecap="round" stroke-linejoin="round"/>
<path d="M11 20.3962V16.5003M11 20.3962C11.7608 20.3962 12.375 20.8087 12.375 21.3128M11 20.3962C10.2392 20.3962 9.625 20.8087 9.625 21.3128M0.6875 16.5003H21.3125M2.0625 4.35449H19.9375V16.5003H2.0625V4.35449Z" stroke="black" stroke-width="1.5" stroke-linecap="round" stroke-linejoin="round"/>
</g>
<defs>
<clipPath id="clip0_175_242">
<rect width="22" height="22" fill="white"/>
</clipPath>
</defs>
</svg>
