<svg width="16" height="16" viewBox="0 0 16 16" fill="none" xmlns="http://www.w3.org/2000/svg">
<path d="M2 13.9999L5.08667 10.9125M5.09 10.9092L3.23667 9.05587C2.60067 8.42054 3.24067 7.05854 4.11 7.00387C4.89533 6.95387 6.71333 7.23854 7.318 6.63387L8.978 4.97387C9.38933 4.56187 9.128 3.64054 9.10133 3.13254C9.06267 2.4552 10.14 1.61854 10.7113 2.18987L13.8093 5.28854C14.3827 5.86054 13.5427 6.93454 12.8673 6.89854C12.3593 6.87187 11.4373 6.61054 11.0253 7.02187L9.36533 8.68187C8.76133 9.28654 9.04533 11.1039 8.996 11.8892C8.94133 12.7592 7.57933 13.3992 6.94267 12.7625L5.09 10.9092Z" stroke="#282427" stroke-width="1.5" stroke-linecap="round" stroke-linejoin="round"/>
</svg>
