<svg width="24" height="24" viewBox="0 0 24 24" fill="none" xmlns="http://www.w3.org/2000/svg">
<path d="M2.01758 13.4996C4.21758 13.4996 6.00058 15.2826 6.00058 17.4826M6.00058 3.5166C6.00058 5.7166 4.21758 7.4996 2.01758 7.4996M18.0006 3.5166C18.0006 5.6966 19.7696 7.4686 21.9426 7.4996" stroke="white" stroke-width="1.5" stroke-linecap="round" stroke-linejoin="round"/>
<path d="M22 10V9.5C22 6.672 22 5.257 21.121 4.379C20.243 3.5 18.828 3.5 16 3.5H8C5.172 3.5 3.757 3.5 2.879 4.379C2 5.257 2 6.672 2 9.5V11.5C2 14.328 2 15.743 2.879 16.621C3.757 17.5 5.172 17.5 8 17.5H13" stroke="white" stroke-width="1.5" stroke-linecap="round" stroke-linejoin="round"/>
<path d="M16 15.5C16 15.2348 16.1054 14.9804 16.2929 14.7929C16.4804 14.6054 16.7348 14.5 17 14.5H22L20.5 12.5M22 17.5C22 17.7652 21.8946 18.0196 21.7071 18.2071C21.5196 18.3946 21.2652 18.5 21 18.5H16L17.5 20.5M15 10.5C15 11.2956 14.6839 12.0587 14.1213 12.6213C13.5587 13.1839 12.7956 13.5 12 13.5C11.2044 13.5 10.4413 13.1839 9.87868 12.6213C9.31607 12.0587 9 11.2956 9 10.5C9 9.70435 9.31607 8.94129 9.87868 8.37868C10.4413 7.81607 11.2044 7.5 12 7.5C12.7956 7.5 13.5587 7.81607 14.1213 8.37868C14.6839 8.94129 15 9.70435 15 10.5Z" stroke="white" stroke-width="1.5" stroke-linecap="round" stroke-linejoin="round"/>
</svg>
